<svg width="1166" height="540" viewBox="0 0 1166 540" fill="none" xmlns="http://www.w3.org/2000/svg">
<path d="M1060.8 415.4L1031.6 329H952.4L921.6 415.4H951.6V423H890.4V415.4H909.2L1011.2 140.6H1044L1144.8 415.4H1163.2V423H1032.4V415.4H1060.8ZM993.6 215.4L956 320.2H1028.4L993.6 215.4Z" fill="#0039A4" fill-opacity="0.3"/>
<path d="M8.4 143H128C165.067 143 192.8 148.067 211.2 158.2C229.867 168.067 239.2 184.867 239.2 208.6C239.2 245.133 217.2 267 173.2 274.2V275C226.533 281.667 253.2 304.867 253.2 344.6C253.2 373.667 242.267 394.067 220.4 405.8C198.533 417.267 167.067 423 126 423H8.4V415.4H34.4V150.6H8.4V143ZM112.4 281.4V415.4H131.2C145.867 415.4 156.133 410.333 162 400.2C167.867 390.067 170.8 375.133 170.8 355.4V334.2C170.8 316.6 167.2 303.4 160 294.6C152.8 285.8 140 281.4 121.6 281.4H112.4ZM112.4 150.6V273.8H122.8C136.667 273.8 146.267 269.667 151.6 261.4C157.2 252.867 160 239.933 160 222.6V203.8C160 184.067 157.6 170.333 152.8 162.6C148 154.6 138.8 150.6 125.2 150.6H112.4Z" fill="#0039A4" fill-opacity="0.3"/>
</svg>
