<svg width="191" height="192" viewBox="0 0 191 192" fill="none" xmlns="http://www.w3.org/2000/svg">
<path d="M18.0312 77.8755C27.9895 67.9171 44.1353 67.9171 54.0936 77.8755C58.9019 82.6838 69.8032 88.9346 69.9682 95.2349C70.1449 101.983 59.2437 108.788 54.0936 113.938C44.1353 123.896 27.9895 123.896 18.0312 113.938C8.07281 103.98 8.07281 87.8338 18.0312 77.8755Z" fill="#1765F3"/>
<path d="M172.539 113.695C162.581 123.654 146.435 123.654 136.477 113.695C131.669 108.887 120.767 102.636 120.602 96.3358C120.426 89.5877 131.327 82.7828 136.477 77.6328C146.435 67.6744 162.581 67.6744 172.539 77.6328C182.498 87.5912 182.498 103.737 172.539 113.695Z" fill="#1765F3"/>
<path d="M76.8754 173.539C66.917 163.581 66.917 147.435 76.8753 137.477C81.6837 132.669 87.9345 121.767 94.2348 121.602C100.983 121.426 107.788 132.327 112.938 137.477C122.896 147.435 122.896 163.581 112.938 173.539C102.979 183.498 86.8337 183.498 76.8754 173.539Z" fill="#1765F3"/>
<path d="M112.695 18.0312C122.654 27.9896 122.654 44.1353 112.695 54.0937C107.887 58.902 101.636 69.8032 95.3357 69.9682C88.5877 70.1449 81.7828 59.2437 76.6328 54.0937C66.6744 44.1353 66.6744 27.9896 76.6328 18.0312C86.5911 8.07284 102.737 8.07284 112.695 18.0312Z" fill="#1765F3"/>
<path d="M51.5 27.0001C65.5833 27.0001 77 38.4168 77 52.5001C77 59.3001 80.2883 71.4284 75.95 76.0001C71.3033 80.8966 58.7833 78.0001 51.5 78.0001C37.4167 78.0001 26 66.5833 26 52.5001C26 38.4168 37.4167 27.0001 51.5 27.0001Z" fill="#17AAFF"/>
<mask id="mask0_1_64" style="mask-type:alpha" maskUnits="userSpaceOnUse" x="112" y="25" width="52" height="53">
<path d="M163.851 50.5C163.851 64.5833 152.434 76 138.351 76C131.551 76 119.422 79.2884 114.851 74.95C109.954 70.3034 112.851 57.7833 112.851 50.5C112.851 36.4168 124.267 25 138.351 25C152.434 25 163.851 36.4168 163.851 50.5Z" fill="#17AAFF"/>
</mask>
<g mask="url(#mask0_1_64)">
<path d="M163.851 50.5C163.851 64.5833 152.434 76 138.351 76C131.551 76 119.422 79.2884 114.851 74.95C109.954 70.3034 112.851 57.7833 112.851 50.5C112.851 36.4168 124.267 25 138.351 25C152.434 25 163.851 36.4168 163.851 50.5Z" fill="#17AAFF"/>
<path d="M92.26 33H123.46L124.06 44.88H122.98C121.3 40.84 119.54 38.08 117.7 36.6C115.86 35.08 113.16 34.32 109.6 34.32H107.5V52.86H109.54C111.42 52.86 113 52.16 114.28 50.76C115.56 49.32 116.46 47.4 116.98 45H117.88V62.76H116.86C116.14 59.76 115.16 57.62 113.92 56.34C112.72 55.06 111.06 54.42 108.94 54.42H107.5V73.68H109.78C113.46 73.68 116.58 72.58 119.14 70.38C121.74 68.18 123.52 65.36 124.48 61.92H125.68L125.2 75H92.26V73.68H95.8V34.32H92.26V33ZM153.775 73.86L149.395 60.9H137.515L132.895 73.86H137.395V75H128.215V73.86H131.035L146.335 32.64H151.255L166.375 73.86H169.135V75H149.515V73.86H153.775ZM143.695 43.86L138.055 59.58H148.915L143.695 43.86Z" fill="#1664F3"/>
</g>
<mask id="mask1_1_64" style="mask-type:alpha" maskUnits="userSpaceOnUse" x="111" y="113" width="53" height="52">
<path d="M138.5 164.851C124.417 164.851 113 153.434 113 139.351C113 132.551 109.712 120.422 114.05 115.851C118.697 110.954 131.217 113.851 138.5 113.851C152.583 113.851 164 125.268 164 139.351C164 153.434 152.583 164.851 138.5 164.851Z" fill="#17AAFF"/>
</mask>
<g mask="url(#mask1_1_64)">
<path d="M138.5 164.851C124.417 164.851 113 153.434 113 139.351C113 132.551 109.712 120.422 114.05 115.851C118.697 110.954 131.217 113.851 138.5 113.851C152.583 113.851 164 125.268 164 139.351C164 153.434 152.583 164.851 138.5 164.851Z" fill="#17AAFF"/>
<path d="M89.344 116.2H122.624L123.264 128.872H122.112C120.32 124.563 118.443 121.619 116.48 120.04C114.517 118.419 111.637 117.608 107.84 117.608H105.6V137.384H107.776C109.781 137.384 111.467 136.637 112.832 135.144C114.197 133.608 115.157 131.56 115.712 129H116.672V147.944H115.584C114.816 144.744 113.771 142.461 112.448 141.096C111.168 139.731 109.397 139.048 107.136 139.048H105.6V159.592H108.032C111.957 159.592 115.285 158.419 118.016 156.072C120.789 153.725 122.688 150.717 123.712 147.048H124.992L124.48 161H89.344V159.592H93.12V117.608H89.344V116.2ZM154.961 159.784L150.289 145.96H137.617L132.689 159.784H137.489V161H127.697V159.784H130.705L147.025 115.816H152.273L168.401 159.784H171.345V161H150.417V159.784H154.961ZM144.208 127.784L138.193 144.552H149.777L144.208 127.784Z" fill="#16F3F3"/>
</g>
<mask id="mask2_1_64" style="mask-type:alpha" maskUnits="userSpaceOnUse" x="25" y="112" width="53" height="53">
<path d="M25.9999 139.5C25.9999 125.417 37.4166 114 51.4999 114C58.2999 114 70.4282 110.712 74.9999 115.05C79.8964 119.697 76.9999 132.217 76.9999 139.5C76.9999 153.583 65.5831 165 51.4999 165C37.4166 165 25.9999 153.583 25.9999 139.5Z" fill="#17AAFF"/>
</mask>
<g mask="url(#mask2_1_64)">
<path d="M25.9999 139.5C25.9999 125.417 37.4166 114 51.4999 114C58.2999 114 70.4282 110.712 74.9999 115.05C79.8964 119.697 76.9999 132.217 76.9999 139.5C76.9999 153.583 65.5831 165 51.4999 165C37.4166 165 25.9999 153.583 25.9999 139.5Z" fill="#17AAFF"/>
<path d="M-12.1955 116.209L21.0836 116.453L21.6307 129.13L20.4787 129.121C18.7184 124.799 16.8627 121.841 14.9116 120.248C12.9609 118.613 10.0869 117.781 6.28972 117.753L4.04978 117.736L3.90473 137.512L6.08067 137.528C8.08595 137.543 9.77671 136.808 11.153 135.325C12.5295 133.799 13.5045 131.758 14.078 129.202L15.0379 129.209L14.899 148.153L13.811 148.145C13.0665 144.939 12.0379 142.649 10.7253 141.274C9.45537 139.899 7.68976 139.204 5.42848 139.187L3.89252 139.176L3.74184 159.719L6.17378 159.737C10.099 159.766 13.4355 158.617 16.1833 156.291C18.9738 153.964 20.8945 150.97 21.9454 147.309L23.2253 147.318L22.611 161.266L-12.524 161.008L-12.5137 159.6L-8.73782 159.628L-8.42989 117.645L-12.2058 117.617L-12.1955 116.209ZM53.0996 160.273L48.5291 146.415L35.8575 146.323L30.8282 160.11L35.6281 160.145L35.6192 161.361L25.8274 161.289L25.8363 160.073L28.8443 160.095L45.4863 116.248L50.7342 116.287L66.5392 160.372L69.4832 160.394L69.4742 161.61L48.5468 161.456L48.5557 160.24L53.0996 160.273ZM42.5826 128.195L36.4438 144.919L48.0275 145.004L42.5826 128.195Z" fill="#D8D8D8"/>
</g>
</svg>
