<svg width="1440" height="449" viewBox="0 0 1440 449" fill="none" xmlns="http://www.w3.org/2000/svg">
<rect width="1440" height="449" fill="#0039A4"/>
<path d="M1072.66 207.88C1074.51 206.813 1075.85 205.376 1076.67 203.568C1077.54 201.738 1077.4 199.825 1076.24 197.83C1075.07 195.798 1073.4 194.694 1071.23 194.518C1069.09 194.321 1066.38 194.656 1063.09 195.523C1059.81 196.331 1057.35 196.813 1055.72 196.969C1054.12 197.103 1052.47 197.02 1050.77 196.721C1047.37 196.122 1044.51 193.809 1042.18 189.781C1040.29 186.493 1039.82 182.994 1040.78 179.285C1041.78 175.555 1044.31 172.517 1048.38 170.17C1050.34 169.039 1052.54 168.162 1054.99 167.537C1057.45 166.854 1058.94 166.363 1059.46 166.064C1059.97 165.766 1060.22 165.129 1060.2 164.156L1060.81 163.804L1067.66 174.776L1066.78 175.288C1063.15 173.097 1059.8 171.606 1056.73 170.816C1053.68 169.967 1051.01 170.203 1048.72 171.526C1046.46 172.827 1045.02 174.376 1044.38 176.173C1043.72 177.933 1043.9 179.7 1044.93 181.474C1045.93 183.21 1047.45 184.132 1049.48 184.24C1051.53 184.289 1053.81 183.98 1056.33 183.312C1058.86 182.645 1060.51 182.23 1061.31 182.068C1062.14 181.884 1063.17 181.707 1064.4 181.538C1065.65 181.31 1066.71 181.236 1067.6 181.317C1068.5 181.34 1069.49 181.481 1070.58 181.741C1071.68 181.942 1072.66 182.313 1073.51 182.855C1075.53 184.052 1077.25 185.871 1078.65 188.309C1080.96 192.3 1081.56 196.24 1080.45 200.129C1079.36 203.96 1076.79 207.049 1072.72 209.396C1070.62 210.612 1068.04 211.732 1064.98 212.757C1061.97 213.76 1060.31 214.347 1060.01 214.517C1059.5 214.816 1059.32 215.658 1059.48 217.044L1058.7 217.492L1050.53 204.621L1051.47 204.077C1054.95 206.353 1058.65 207.966 1062.54 208.917C1066.48 209.847 1069.85 209.501 1072.66 207.88ZM1100.39 178.127L1097.67 173.416C1095.6 169.832 1093.89 167.344 1092.54 165.953C1091.22 164.504 1089.85 164.184 1088.44 164.995C1087.63 165.464 1087.1 166.089 1086.87 166.868C1086.64 167.588 1086.73 168.548 1087.12 169.748C1087.75 171.603 1089.05 174.23 1091.01 177.629L1093.51 181.953C1095.83 185.98 1097.34 188.336 1098.03 189.021C1098.76 189.685 1099.4 190.201 1099.96 190.569C1100.88 191.221 1101.93 191.205 1103.11 190.523C1104.55 189.691 1105.01 188.315 1104.5 186.397C1104.15 185.022 1102.78 182.266 1100.39 178.127ZM1103.57 191.584C1098.96 194.251 1094.78 195.085 1091.05 194.085C1087.32 193.086 1084.19 190.387 1081.65 185.99C1079.09 181.556 1078.38 177.432 1079.53 173.616C1080.69 169.742 1083.56 166.483 1088.15 163.837C1092.73 161.192 1096.79 160.327 1100.32 161.243C1103.83 162.122 1106.89 164.815 1109.49 169.323C1114.93 178.745 1112.96 186.166 1103.57 191.584ZM1082.09 162.824L1079.47 150.222L1081.76 148.164C1082.75 147.244 1083.71 146.89 1084.62 147.103C1085.54 147.258 1086.27 147.797 1086.81 148.721C1087.32 149.608 1087.32 150.841 1086.8 152.42L1082.93 162.86L1082.09 162.824ZM1128.88 141.057L1129.46 142.055L1130.4 174.026L1131.12 173.61C1134.23 171.818 1136.2 169.597 1137.03 166.947C1137.87 164.298 1137.73 160.856 1136.61 156.621L1137.39 156.173L1143.06 168.048L1119.78 181.488L1119.3 180.656L1118.48 148.391L1117.87 148.743C1114.14 150.897 1111.89 153.011 1111.12 155.084C1110.38 157.135 1110.59 160.487 1111.75 165.139L1111.03 165.555L1105.6 154.497L1128.88 141.057ZM1122.91 124.254L1136.49 116.414L1159.92 156.985L1163.02 155.193L1163.6 156.191L1147.14 165.695L1146.56 164.697L1149.61 162.937L1126.76 123.363L1123.49 125.251L1122.91 124.254ZM1155.38 120.659C1153.42 121.789 1151.73 122.101 1150.3 121.594C1148.92 121.066 1147.79 120.063 1146.94 118.585C1146.09 117.107 1145.83 115.631 1146.16 114.159C1146.53 112.665 1147.64 111.384 1149.48 110.318C1151.33 109.251 1152.99 108.884 1154.46 109.216C1155.92 109.511 1157.11 110.472 1158.05 112.097C1158.97 113.686 1159.24 115.228 1158.87 116.722C1158.5 118.216 1157.34 119.528 1155.38 120.659ZM1149.22 129.315L1162.8 121.475L1177.46 146.86L1180.56 145.068L1181.13 146.066L1164.67 155.57L1164.1 154.572L1167.15 152.812L1153.07 128.425L1149.8 130.313L1149.22 129.315ZM1200.39 134.949L1199.81 133.952L1202.36 132.48L1188.68 123.237L1187.78 124.122L1195.05 136.704L1197.6 135.232L1198.17 136.229L1182.26 145.413L1181.69 144.416L1184.74 142.656L1161.89 103.082L1158.62 104.97L1158.04 103.972L1171.62 96.1323L1187.14 123.014L1187.84 122.169L1194.32 104.605L1189.11 107.613L1188.54 106.615L1199.46 100.311L1200.03 101.309L1196.15 103.549L1192.79 112.955L1213.23 126.208L1215.22 125.056L1215.8 126.053L1200.39 134.949Z" fill="white" fill-opacity="0.2"/>
<path d="M749.336 255.513L738.378 245.877L727.404 252.213L730.048 266.649L734.205 264.249L734.813 265.302L726.333 270.198L725.725 269.145L728.33 267.641L720.479 221.403L725.024 218.779L760.975 248.793L763.525 247.321L764.133 248.374L746.009 258.838L745.401 257.785L749.336 255.513ZM724.024 233.176L727.198 250.705L737.23 244.913L724.024 233.176Z" fill="white" fill-opacity="0.3"/>
<path d="M237.144 91.9307L253.717 82.3627C258.853 79.3974 263.101 77.8808 266.461 77.8129C269.837 77.6867 272.474 79.2679 274.373 82.5565C277.296 87.6187 275.996 92.4087 270.476 96.9263L270.54 97.0372C278.463 93.6943 284.014 94.7756 287.193 100.281C289.518 104.309 289.635 108.01 287.544 111.385C285.431 114.724 281.53 118.035 275.839 121.321L259.544 130.729L258.936 129.676L262.539 127.596L241.355 90.9038L237.752 92.9838L237.144 91.9307ZM262.627 102.788L273.347 121.356L275.952 119.852C277.984 118.678 279.002 117.155 279.004 115.281C279.006 113.408 278.218 111.104 276.639 108.37L274.943 105.432C273.535 102.993 271.98 101.452 270.279 100.809C268.577 100.166 266.451 100.58 263.902 102.052L262.627 102.788ZM252.163 84.6638L262.019 101.735L263.46 100.903C265.381 99.7936 266.381 98.4528 266.459 96.8807C266.552 95.2503 265.905 93.2342 264.519 90.8324L263.015 88.2274C261.436 85.4931 260.005 83.7821 258.721 83.0946C257.416 82.3701 255.821 82.5518 253.937 83.6398L252.163 84.6638Z" fill="white" fill-opacity="0.3"/>
<path d="M83.8891 245.743C85.9498 245.191 87.614 244.149 88.882 242.616C90.1911 241.073 90.5475 239.188 89.9512 236.963C89.3438 234.696 88.0146 233.197 85.9634 232.466C83.9534 231.723 81.2458 231.345 77.8405 231.329C74.4654 231.262 71.9682 231.092 70.3491 230.819C68.7712 230.535 67.1999 230.028 65.6351 229.299C62.5057 227.841 60.3392 224.865 59.1355 220.373C58.1527 216.705 58.6061 213.205 60.4957 209.871C62.4266 206.527 65.6588 204.247 70.1922 203.033C72.3764 202.447 74.7315 202.17 77.2573 202.2C79.8133 202.177 81.3798 202.089 81.9568 201.934C82.5337 201.78 82.9385 201.23 83.171 200.284L83.851 200.102L87.6297 212.473L86.6406 212.738C83.7017 209.683 80.8529 207.376 78.0944 205.818C75.3661 204.208 72.7243 203.746 70.1691 204.43C67.6551 205.104 65.8576 206.226 64.7766 207.797C63.6846 209.326 63.4036 211.08 63.9337 213.058C64.4527 214.995 65.68 216.279 67.6157 216.908C69.5815 217.486 71.8685 217.779 74.4767 217.787C77.085 217.794 78.7931 217.823 79.6012 217.871C80.4505 217.909 81.4923 218.005 82.7265 218.16C83.9909 218.263 85.0397 218.468 85.8728 218.775C86.7361 219.029 87.6587 219.423 88.6405 219.955C89.6525 220.434 90.5011 221.046 91.1863 221.79C92.8291 223.47 94.0149 225.67 94.7438 228.39C95.9364 232.841 95.4959 236.802 93.4223 240.273C91.3788 243.692 88.0904 246.009 83.557 247.223C81.2078 247.853 78.4256 248.267 75.2102 248.466C72.036 248.654 70.284 248.792 69.9543 248.881C69.3774 249.035 68.9866 249.802 68.7822 251.182L67.9167 251.414L63.3562 236.867L64.4071 236.585C67.1812 239.685 70.3284 242.199 73.8486 244.127C77.4101 246.044 80.7569 246.582 83.8891 245.743ZM118.37 224.18L116.962 218.925C115.891 214.928 114.886 212.083 113.947 210.391C113.037 208.647 111.8 207.985 110.234 208.404C109.327 208.647 108.657 209.114 108.224 209.804C107.82 210.442 107.655 211.392 107.728 212.654C107.854 214.607 108.425 217.48 109.441 221.272L110.733 226.094C111.937 230.586 112.784 233.252 113.274 234.093C113.805 234.922 114.293 235.587 114.736 236.086C115.454 236.954 116.473 237.211 117.792 236.858C119.399 236.427 120.201 235.218 120.199 233.231C120.217 231.813 119.607 228.796 118.37 224.18ZM117.966 238.004C112.815 239.384 108.567 239.109 105.222 237.178C101.878 235.247 99.5486 231.829 98.2344 226.925C96.9093 221.979 97.2946 217.812 99.3903 214.424C101.516 210.983 105.134 208.578 110.245 207.209C115.355 205.839 119.499 206.054 122.675 207.853C125.841 209.611 128.097 213.004 129.444 218.032C132.26 228.542 128.434 235.199 117.966 238.004ZM104.66 204.663L105.39 191.812L108.13 190.416C109.331 189.785 110.343 189.69 111.168 190.132C112.024 190.521 112.589 191.231 112.865 192.261C113.13 193.25 112.809 194.441 111.901 195.832L105.456 204.914L104.66 204.663ZM155.489 195.748L155.787 196.861L148.425 227.987L149.228 227.772C152.69 226.844 155.167 225.209 156.659 222.865C158.152 220.522 158.908 217.161 158.927 212.783L159.793 212.551L162.199 225.489L136.235 232.446L135.987 231.519L143.547 200.141L142.867 200.323C138.705 201.438 135.981 202.897 134.697 204.698C133.454 206.489 132.79 209.781 132.705 214.574L131.902 214.79L129.525 202.705L155.489 195.748ZM154.074 177.973L169.22 173.914L181.345 219.166L184.807 218.238L185.105 219.351L166.745 224.271L166.447 223.158L169.847 222.247L158.02 178.108L154.372 179.085L154.074 177.973ZM202.729 215.291C197.413 216.716 193.051 216.427 189.643 214.425C186.265 212.37 183.925 208.911 182.622 204.048C181.308 199.144 181.787 194.996 184.058 191.605C186.371 188.202 189.835 185.882 194.451 184.646C203.807 182.139 209.558 185.633 211.705 195.129L194.272 199.801L194.918 202.211C196 206.25 197.332 209.162 198.915 210.947C200.497 212.731 202.566 213.281 205.121 212.596C209.902 211.315 212.349 207.921 212.464 202.413L213.626 202.3C213.638 205.478 212.835 208.166 211.216 210.367C209.638 212.557 206.809 214.198 202.729 215.291ZM194.002 198.548L200.369 196.841L199.558 193.812C198.663 190.474 197.85 188.263 197.117 187.178C196.415 186.041 195.467 185.632 194.271 185.953C193.117 186.262 192.429 187.153 192.205 188.627C192.012 190.048 192.34 192.345 193.19 195.518L194.002 198.548ZM231.407 177.261C229.882 177.67 228.808 179.018 228.184 181.305C227.56 183.593 227.613 186.096 228.341 188.816L232.781 205.384L237.17 204.208L237.468 205.321L218.18 210.489L217.882 209.376L221.282 208.465L213.994 181.264L210.594 182.175L210.296 181.063L225.194 177.071L226.784 183.005C226.757 180.76 227.357 178.876 228.583 177.355C229.799 175.793 231.375 174.752 233.312 174.233C235.249 173.714 236.965 173.851 238.458 174.643C239.981 175.383 241.014 176.763 241.555 178.783C242.085 180.761 242.04 182.407 241.421 183.722C240.801 185.036 239.543 185.947 237.647 186.455C235.793 186.952 234.247 186.704 233.009 185.711C231.812 184.706 231.251 183.023 231.325 180.662L233.55 180.066C234.017 177.688 233.303 176.753 231.407 177.261Z" fill="white" fill-opacity="0.2"/>
<path d="M308.6 260.776C301.987 260.776 298.68 267.155 298.68 279.912V284.968C298.68 291.027 299.555 295.784 301.304 299.24C303.053 302.653 305.635 304.36 309.048 304.36C313.741 304.36 318.051 299.795 321.976 290.664H323.128L322.68 304.936H321.976C321.72 304.467 321.485 304.147 321.272 303.976C321.059 303.763 320.739 303.656 320.312 303.656C319.928 303.656 318.392 303.997 315.704 304.68C313.016 305.32 310.285 305.64 307.512 305.64C300.557 305.64 295.16 303.763 291.32 300.008C287.523 296.253 285.624 290.621 285.624 283.112C285.624 275.56 287.608 269.736 291.576 265.64C295.587 261.544 300.963 259.496 307.704 259.496C310.307 259.496 312.845 259.837 315.32 260.52C317.837 261.16 319.309 261.48 319.736 261.48C320.163 261.48 320.483 261.395 320.696 261.224C320.909 261.011 321.144 260.669 321.4 260.2H322.104L322.616 274.088H321.464C319.544 269.779 317.56 266.493 315.512 264.232C313.507 261.928 311.203 260.776 308.6 260.776Z" fill="white" fill-opacity="0.3"/>
<path d="M1119.77 305.078L1120.04 290.694L1114.89 282.583L1112.24 283.291L1112.01 282.411L1126.38 278.559L1126.62 279.44L1123.88 280.173L1136.67 300.252L1136.35 276.831L1131.67 278.086L1131.44 277.205L1140.71 274.72L1140.94 275.601L1137.88 276.421L1137.94 310.745L1133.81 311.851L1121.33 292.733L1120.92 315.304L1116.89 316.385L1096.62 287.478L1094.44 288.062L1094.2 287.181L1109.27 283.143L1109.51 284.024L1106.26 284.894L1119.77 305.078Z" fill="white" fill-opacity="0.3"/>
</svg>
