<svg width="1440" height="449" viewBox="0 0 1440 449" fill="none" xmlns="http://www.w3.org/2000/svg">
<rect width="1440" height="449" fill="#0039A4"/>
<path d="M1033.76 179.42L1053.72 167.9L1054.42 169.119L1048.55 172.511L1069.54 208.87L1071.53 207.718C1074.67 205.905 1076.61 203.504 1077.35 200.516C1078.13 197.507 1078.32 193.452 1077.94 188.352L1079.1 187.68L1085.54 201.258L1056.16 218.218L1055.46 216.998L1058.73 215.11L1037.74 178.751L1034.47 180.639L1033.76 179.42ZM1120.18 181.256L1107.55 188.552L1104.6 184.858C1104.86 186.677 1104.64 188.335 1103.92 189.83C1103.23 191.268 1101.73 192.648 1099.44 193.97C1093.71 197.277 1089.07 195.845 1085.51 189.674L1075.87 172.991L1072.77 174.783L1072.2 173.785L1085.61 166.041L1096.58 185.052C1097.86 187.269 1098.85 188.644 1099.56 189.175C1100.29 189.685 1101.12 189.673 1102.05 189.14C1103.01 188.585 1103.53 187.522 1103.61 185.95C1103.68 184.378 1103.14 182.576 1101.96 180.543L1092.17 163.583L1089.62 165.055L1089.04 164.057L1101.9 156.633L1116.56 182.018L1119.61 180.258L1120.18 181.256ZM1126.65 138.504L1127.66 136.666C1127.22 135.393 1126.44 135.076 1125.33 135.716C1123.74 136.633 1123.65 138.311 1125.06 140.75C1125.62 141.711 1126.39 142.744 1127.37 143.851C1131.27 144.115 1134.07 145.724 1135.77 148.68C1137.46 151.599 1137.76 154.458 1136.66 157.258C1135.57 160.057 1133.28 162.459 1129.81 164.464C1128.37 165.296 1126.79 166.012 1125.07 166.613C1124.04 168.586 1123.67 169.831 1123.97 170.349C1124.27 170.866 1125.6 170.442 1127.97 169.077L1133.62 165.813C1142.01 160.97 1147.94 161.56 1151.42 167.583C1153.3 170.835 1153.5 174.139 1152.04 177.495C1150.64 180.867 1147.26 184.1 1141.9 187.193C1132.77 192.463 1127.07 193.121 1124.79 189.167C1123.55 187.024 1124.12 184.724 1126.49 182.269L1130.68 181.845C1131.01 183.088 1131.44 184.189 1132 185.15C1133.83 188.327 1137.12 188.551 1141.85 185.82C1144.73 184.156 1146.64 182.341 1147.57 180.373C1148.5 178.405 1148.51 176.627 1147.59 175.038C1146.68 173.449 1145.58 172.655 1144.3 172.656C1143.07 172.672 1141.06 173.49 1138.25 175.112L1132.87 178.216C1129.88 179.944 1127.45 180.682 1125.58 180.431C1123.71 180.18 1122.36 179.334 1121.53 177.893C1120.67 176.415 1120.43 174.929 1120.8 173.435C1121.15 171.904 1122.09 169.735 1123.62 166.929C1118.63 168.184 1114.87 166.613 1112.33 162.216C1110.73 159.445 1110.44 156.633 1111.45 153.782C1112.46 150.93 1114.97 148.352 1118.96 146.048C1121.36 144.661 1123.68 143.939 1125.91 143.882C1125.11 143.012 1124.48 142.171 1124.01 141.358C1122.81 139.289 1122.5 137.472 1123.08 135.908C1123.65 134.345 1124.63 133.168 1125.99 132.379C1127.36 131.589 1128.66 131.33 1129.9 131.599C1131.16 131.811 1132.15 132.545 1132.87 133.801C1133.6 135.057 1133.81 136.191 1133.51 137.204C1133.18 138.179 1132.54 138.944 1131.58 139.498C1130.66 140.032 1129.74 140.24 1128.84 140.122C1127.95 139.946 1127.22 139.407 1126.65 138.504ZM1120.88 155.653L1122.61 158.646C1124.04 161.121 1125.21 162.685 1126.13 163.338C1127.09 163.968 1127.99 164.038 1128.84 163.548C1129.73 163.036 1130.11 162.248 1129.99 161.185C1129.88 160.064 1129.05 158.154 1127.49 155.457L1125.93 152.741C1124.26 149.859 1122.99 148.081 1122.11 147.407C1121.2 146.697 1120.31 146.598 1119.42 147.11C1118.57 147.6 1118.2 148.454 1118.31 149.671C1118.4 150.851 1119.26 152.845 1120.88 155.653ZM1140.94 135.869L1139.99 135.381C1142.13 131.143 1142.55 127.897 1141.24 125.643C1140.56 124.461 1139.68 124.083 1138.6 124.512L1137.52 128.017C1136.63 128.185 1135.68 128.118 1134.67 127.816C1133.67 127.455 1132.86 126.739 1132.24 125.667C1131.62 124.596 1131.53 123.445 1131.95 122.215C1132.35 120.949 1133.24 119.921 1134.6 119.131C1136.01 118.321 1137.43 118.14 1138.87 118.588C1140.33 118.979 1141.54 120.005 1142.5 121.668C1144.59 125.289 1144.07 130.023 1140.94 135.869ZM1168.78 135.833L1170.39 134.905L1167.92 130.638C1165.89 127.127 1164.34 124.898 1163.25 123.951C1162.17 122.945 1161.08 122.762 1159.97 123.402C1159.31 123.786 1158.81 124.322 1158.47 125.012C1158.14 125.643 1158.16 126.273 1158.52 126.901C1158.86 127.492 1159.33 128.038 1159.91 128.538L1161.3 127.738C1162.04 128.343 1162.73 129.2 1163.37 130.309C1163.99 131.38 1164.07 132.589 1163.62 133.935C1163.14 135.245 1162.2 136.305 1160.8 137.115C1157.62 138.95 1155.15 138.334 1153.37 135.267C1150.75 130.722 1153.3 126.22 1161.02 121.762C1165.42 119.223 1168.89 118.231 1171.42 118.786C1173.98 119.283 1176.41 121.526 1178.71 125.517L1185.21 136.768C1186.32 138.69 1187.41 139.341 1188.48 138.723C1189.73 137.997 1189.37 135.668 1187.4 131.734L1188.26 131.309C1189.99 134.646 1190.67 137.234 1190.3 139.072C1189.94 140.91 1188.53 142.533 1186.1 143.941C1181.66 146.501 1178.32 146.606 1176.08 144.255C1176.41 145.937 1176.29 147.387 1175.71 148.607C1175.13 149.827 1173.92 150.97 1172.07 152.037C1166.6 155.194 1162.58 154.537 1160 150.066C1158.48 147.443 1158.48 145.053 1160 142.898C1161.53 140.684 1164.45 138.329 1168.78 135.833ZM1170.5 143.931C1171.61 145.852 1172.41 147.037 1172.92 147.484C1173.46 147.911 1174.01 147.964 1174.56 147.644C1175.15 147.302 1175.42 146.531 1175.37 145.33C1175.33 144.071 1174.83 142.61 1173.87 140.947L1170.9 135.792L1170.51 136.016C1168.22 137.339 1168.04 139.682 1169.98 143.044L1170.5 143.931ZM1190.8 129.919L1180.72 112.46L1177.67 114.22L1177.09 113.222L1180.14 111.462L1176.01 104.312L1184.85 95.8106L1190.45 105.51L1197.66 101.35L1198.23 102.348L1191.03 106.508L1201.81 125.186C1202.81 126.923 1203.72 128.102 1204.52 128.723C1205.36 129.322 1206.33 129.302 1207.44 128.662C1208.55 128.022 1209.19 126.913 1209.36 125.335C1209.57 123.736 1209.25 121.901 1208.4 119.83L1209.41 119.397C1210.58 122.117 1210.94 124.619 1210.49 126.902C1210.01 129.148 1208.24 131.156 1205.17 132.927C1202.1 134.698 1199.41 135.443 1197.08 135.162C1194.75 134.881 1192.65 133.134 1190.8 129.919Z" fill="white" fill-opacity="0.2"/>
<path d="M749.336 255.513L738.378 245.877L727.404 252.213L730.048 266.649L734.205 264.249L734.813 265.302L726.333 270.198L725.725 269.145L728.33 267.641L720.479 221.403L725.024 218.779L760.975 248.793L763.525 247.321L764.133 248.374L746.009 258.838L745.401 257.785L749.336 255.513ZM724.024 233.176L727.198 250.705L737.23 244.913L724.024 233.176Z" fill="white" fill-opacity="0.3"/>
<path d="M237.144 91.9307L253.717 82.3627C258.853 79.3974 263.101 77.8808 266.461 77.8129C269.837 77.6867 272.474 79.2679 274.373 82.5565C277.296 87.6187 275.996 92.4087 270.476 96.9263L270.54 97.0372C278.463 93.6943 284.014 94.7756 287.193 100.281C289.518 104.309 289.635 108.01 287.544 111.385C285.431 114.724 281.53 118.035 275.839 121.321L259.544 130.729L258.936 129.676L262.539 127.596L241.355 90.9038L237.752 92.9838L237.144 91.9307ZM262.627 102.788L273.347 121.356L275.952 119.852C277.984 118.678 279.002 117.155 279.004 115.281C279.006 113.408 278.218 111.104 276.639 108.37L274.943 105.432C273.535 102.993 271.98 101.452 270.279 100.809C268.577 100.166 266.451 100.58 263.902 102.052L262.627 102.788ZM252.163 84.6638L262.019 101.735L263.46 100.903C265.381 99.7936 266.381 98.4528 266.459 96.8807C266.552 95.2503 265.905 93.2342 264.519 90.8324L263.015 88.2274C261.436 85.4931 260.005 83.7821 258.721 83.0946C257.416 82.3701 255.821 82.5518 253.937 83.6398L252.163 84.6638Z" fill="white" fill-opacity="0.3"/>
<path d="M83.8891 245.743C85.9498 245.191 87.614 244.149 88.882 242.616C90.1911 241.073 90.5475 239.188 89.9512 236.963C89.3438 234.696 88.0146 233.197 85.9634 232.466C83.9534 231.723 81.2458 231.345 77.8405 231.329C74.4654 231.262 71.9682 231.092 70.3491 230.819C68.7712 230.535 67.1999 230.028 65.6351 229.299C62.5057 227.841 60.3392 224.865 59.1355 220.373C58.1527 216.705 58.6061 213.205 60.4957 209.871C62.4266 206.527 65.6588 204.247 70.1922 203.033C72.3764 202.447 74.7315 202.17 77.2573 202.2C79.8133 202.177 81.3798 202.089 81.9568 201.934C82.5337 201.78 82.9385 201.23 83.171 200.284L83.851 200.102L87.6297 212.473L86.6406 212.738C83.7017 209.683 80.8529 207.376 78.0944 205.818C75.3661 204.208 72.7243 203.746 70.1691 204.43C67.6551 205.104 65.8576 206.226 64.7766 207.797C63.6846 209.326 63.4036 211.08 63.9337 213.058C64.4527 214.995 65.68 216.279 67.6157 216.908C69.5815 217.486 71.8685 217.779 74.4767 217.787C77.085 217.794 78.7931 217.823 79.6012 217.871C80.4505 217.909 81.4923 218.005 82.7265 218.16C83.9909 218.263 85.0397 218.468 85.8728 218.775C86.7361 219.029 87.6587 219.423 88.6405 219.955C89.6525 220.434 90.5011 221.046 91.1863 221.79C92.8291 223.47 94.0149 225.67 94.7438 228.39C95.9364 232.841 95.4959 236.802 93.4223 240.273C91.3788 243.692 88.0904 246.009 83.557 247.223C81.2078 247.853 78.4256 248.267 75.2102 248.466C72.036 248.654 70.284 248.792 69.9543 248.881C69.3774 249.035 68.9866 249.802 68.7822 251.182L67.9167 251.414L63.3562 236.867L64.4071 236.585C67.1812 239.685 70.3284 242.199 73.8486 244.127C77.4101 246.044 80.7569 246.582 83.8891 245.743ZM118.37 224.18L116.962 218.925C115.891 214.928 114.886 212.083 113.947 210.391C113.037 208.647 111.8 207.985 110.234 208.404C109.327 208.647 108.657 209.114 108.224 209.804C107.82 210.442 107.655 211.392 107.728 212.654C107.854 214.607 108.425 217.48 109.441 221.272L110.733 226.094C111.937 230.586 112.784 233.252 113.274 234.093C113.805 234.922 114.293 235.587 114.736 236.086C115.454 236.954 116.473 237.211 117.792 236.858C119.399 236.427 120.201 235.218 120.199 233.231C120.217 231.813 119.607 228.796 118.37 224.18ZM117.966 238.004C112.815 239.384 108.567 239.109 105.222 237.178C101.878 235.247 99.5486 231.829 98.2344 226.925C96.9093 221.979 97.2946 217.812 99.3903 214.424C101.516 210.983 105.134 208.578 110.245 207.209C115.355 205.839 119.499 206.054 122.675 207.853C125.841 209.611 128.097 213.004 129.444 218.032C132.26 228.542 128.434 235.199 117.966 238.004ZM129.48 204.307L128.692 203.591C131.851 200.05 133.094 197.022 132.42 194.508C132.067 193.19 131.312 192.597 130.155 192.73L128.204 195.837C127.303 195.769 126.402 195.458 125.503 194.904C124.634 194.298 124.039 193.397 123.719 192.202C123.399 191.007 123.602 189.87 124.329 188.792C125.045 187.672 126.165 186.908 127.69 186.5C129.256 186.08 130.678 186.274 131.954 187.08C133.26 187.834 134.162 189.139 134.659 190.993C135.741 195.032 134.015 199.47 129.48 204.307ZM167.503 192.529L167.801 193.642L160.438 224.768L161.242 224.553C164.704 223.625 167.181 221.99 168.673 219.646C170.165 217.303 170.921 213.942 170.941 209.564L171.806 209.332L174.213 222.27L148.249 229.227L148 228.299L155.561 196.921L154.881 197.104C150.718 198.219 147.995 199.678 146.711 201.479C145.468 203.27 144.804 206.562 144.719 211.355L143.916 211.571L141.539 199.486L167.503 192.529ZM166.088 174.753L181.234 170.695L193.359 215.947L196.821 215.019L197.119 216.132L178.759 221.052L178.46 219.939L181.861 219.028L170.034 174.889L166.386 175.866L166.088 174.753ZM209.263 197.308L211.055 196.827L209.78 192.067C208.731 188.152 207.803 185.596 206.996 184.398C206.22 183.149 205.213 182.69 203.977 183.021C203.235 183.22 202.61 183.608 202.102 184.186C201.625 184.711 201.48 185.324 201.668 186.025C201.844 186.684 202.15 187.331 202.585 187.966L204.131 187.551C204.692 188.329 205.139 189.335 205.47 190.572C205.79 191.767 205.557 192.956 204.769 194.139C203.971 195.28 202.789 196.061 201.223 196.48C197.678 197.43 195.448 196.195 194.531 192.774C193.173 187.705 196.801 184.016 205.414 181.708C210.318 180.394 213.924 180.333 216.232 181.526C218.569 182.667 220.334 185.462 221.527 189.913L224.889 202.463C225.464 204.606 226.348 205.517 227.543 205.197C228.945 204.822 229.2 202.478 228.31 198.167L229.254 197.98C230.061 201.651 230.049 204.327 229.218 206.007C228.387 207.687 226.612 208.892 223.892 209.621C218.946 210.946 215.694 210.183 214.135 207.332C214.019 209.042 213.525 210.411 212.652 211.44C211.779 212.469 210.312 213.259 208.252 213.812C202.152 215.446 198.434 213.77 197.098 208.783C196.314 205.857 196.932 203.549 198.953 201.859C201.004 200.117 204.441 198.6 209.263 197.308ZM208.827 205.574C209.401 207.717 209.874 209.07 210.246 209.633C210.659 210.185 211.175 210.378 211.793 210.212C212.452 210.036 212.912 209.36 213.171 208.187C213.461 206.96 213.358 205.42 212.861 203.566L211.32 197.816L210.888 197.932C208.332 198.617 207.557 200.834 208.562 204.585L208.827 205.574ZM245.474 173.492C243.949 173.901 242.874 175.249 242.25 177.536C241.626 179.823 241.679 182.327 242.408 185.047L246.847 201.615L251.236 200.439L251.534 201.551L232.247 206.72L231.949 205.607L235.349 204.696L228.06 177.495L224.66 178.406L224.362 177.294L239.261 173.302L240.851 179.236C240.823 176.991 241.423 175.107 242.65 173.586C243.865 172.024 245.442 170.983 247.379 170.464C249.316 169.945 251.031 170.081 252.524 170.874C254.048 171.614 255.08 172.994 255.621 175.013C256.151 176.992 256.106 178.638 255.487 179.953C254.867 181.267 253.61 182.178 251.714 182.686C249.859 183.183 248.313 182.935 247.075 181.941C245.878 180.937 245.317 179.254 245.391 176.893L247.617 176.297C248.084 173.919 247.369 172.984 245.474 173.492Z" fill="white" fill-opacity="0.2"/>
<path d="M308.6 260.776C301.987 260.776 298.68 267.155 298.68 279.912V284.968C298.68 291.027 299.555 295.784 301.304 299.24C303.053 302.653 305.635 304.36 309.048 304.36C313.741 304.36 318.051 299.795 321.976 290.664H323.128L322.68 304.936H321.976C321.72 304.467 321.485 304.147 321.272 303.976C321.059 303.763 320.739 303.656 320.312 303.656C319.928 303.656 318.392 303.997 315.704 304.68C313.016 305.32 310.285 305.64 307.512 305.64C300.557 305.64 295.16 303.763 291.32 300.008C287.523 296.253 285.624 290.621 285.624 283.112C285.624 275.56 287.608 269.736 291.576 265.64C295.587 261.544 300.963 259.496 307.704 259.496C310.307 259.496 312.845 259.837 315.32 260.52C317.837 261.16 319.309 261.48 319.736 261.48C320.163 261.48 320.483 261.395 320.696 261.224C320.909 261.011 321.144 260.669 321.4 260.2H322.104L322.616 274.088H321.464C319.544 269.779 317.56 266.493 315.512 264.232C313.507 261.928 311.203 260.776 308.6 260.776Z" fill="white" fill-opacity="0.3"/>
<path d="M1119.77 305.078L1120.04 290.694L1114.89 282.583L1112.24 283.291L1112.01 282.411L1126.38 278.559L1126.62 279.44L1123.88 280.173L1136.67 300.252L1136.35 276.831L1131.67 278.086L1131.44 277.205L1140.71 274.72L1140.94 275.601L1137.88 276.421L1137.94 310.745L1133.81 311.851L1121.33 292.733L1120.92 315.304L1116.89 316.385L1096.62 287.478L1094.44 288.062L1094.2 287.181L1109.27 283.143L1109.51 284.024L1106.26 284.894L1119.77 305.078Z" fill="white" fill-opacity="0.3"/>
</svg>
