<svg width="1180" height="283" viewBox="0 0 1180 283" fill="none" xmlns="http://www.w3.org/2000/svg">
<path d="M1026.66 156.869C1028.51 155.802 1029.85 154.365 1030.67 152.557C1031.54 150.727 1031.4 148.814 1030.24 146.819C1029.07 144.787 1027.4 143.683 1025.23 143.507C1023.09 143.31 1020.38 143.645 1017.09 144.512C1013.81 145.32 1011.35 145.802 1009.72 145.958C1008.12 146.092 1006.47 146.009 1004.77 145.71C1001.37 145.111 998.51 142.798 996.185 138.77C994.286 135.482 993.818 131.983 994.781 128.274C995.78 124.544 998.312 121.506 1002.38 119.159C1004.34 118.028 1006.54 117.151 1008.99 116.526C1011.45 115.843 1012.94 115.352 1013.46 115.053C1013.97 114.755 1014.22 114.118 1014.2 113.145L1014.81 112.793L1021.66 123.765L1020.78 124.277C1017.15 122.086 1013.8 120.595 1010.73 119.805C1007.68 118.956 1005.01 119.192 1002.72 120.515C1000.46 121.816 999.017 123.366 998.379 125.162C997.72 126.922 997.902 128.689 998.926 130.463C999.929 132.199 1001.45 133.121 1003.48 133.229C1005.53 133.278 1007.81 132.969 1010.33 132.301C1012.86 131.634 1014.51 131.219 1015.31 131.057C1016.14 130.873 1017.17 130.696 1018.4 130.527C1019.65 130.299 1020.71 130.225 1021.6 130.306C1022.5 130.329 1023.49 130.47 1024.58 130.73C1025.68 130.931 1026.66 131.302 1027.51 131.844C1029.53 133.041 1031.25 134.86 1032.65 137.298C1034.96 141.289 1035.56 145.229 1034.45 149.118C1033.36 152.949 1030.79 156.038 1026.72 158.385C1024.62 159.601 1022.04 160.721 1018.98 161.746C1015.97 162.749 1014.31 163.336 1014.01 163.506C1013.5 163.805 1013.32 164.647 1013.48 166.033L1012.7 166.481L1004.53 153.61L1005.47 153.066C1008.95 155.342 1012.65 156.955 1016.54 157.906C1020.48 158.836 1023.85 158.49 1026.66 156.869ZM1054.39 127.116L1051.67 122.405C1049.6 118.821 1047.89 116.333 1046.54 114.942C1045.22 113.493 1043.85 113.173 1042.44 113.984C1041.63 114.453 1041.1 115.078 1040.87 115.857C1040.64 116.577 1040.73 117.537 1041.12 118.737C1041.75 120.592 1043.05 123.219 1045.01 126.618L1047.51 130.942C1049.83 134.969 1051.34 137.325 1052.03 138.01C1052.76 138.674 1053.4 139.19 1053.96 139.558C1054.88 140.21 1055.93 140.195 1057.11 139.512C1058.55 138.68 1059.01 137.304 1058.5 135.386C1058.15 134.011 1056.78 131.255 1054.39 127.116ZM1057.57 140.573C1052.96 143.24 1048.78 144.074 1045.05 143.074C1041.32 142.075 1038.19 139.376 1035.65 134.979C1033.09 130.545 1032.38 126.421 1033.53 122.605C1034.69 118.731 1037.56 115.472 1042.15 112.826C1046.73 110.181 1050.79 109.316 1054.32 110.232C1057.83 111.111 1060.89 113.804 1063.49 118.312C1068.93 127.734 1066.96 135.155 1057.57 140.573ZM1036.09 111.813L1033.47 99.2111L1035.76 97.1529C1036.75 96.2329 1037.71 95.8794 1038.62 96.0923C1039.54 96.2469 1040.27 96.7861 1040.81 97.7099C1041.32 98.5967 1041.32 99.8298 1040.8 101.409L1036.93 111.849L1036.09 111.813ZM1082.88 90.0461L1083.46 91.0438L1084.4 123.015L1085.12 122.599C1088.23 120.807 1090.2 118.586 1091.03 115.936C1091.87 113.287 1091.73 109.845 1090.61 105.61L1091.39 105.162L1097.06 117.037L1073.78 130.477L1073.3 129.645L1072.48 97.3798L1071.87 97.7318C1068.14 99.8865 1065.89 102 1065.12 104.073C1064.38 106.124 1064.59 109.476 1065.75 114.128L1065.03 114.544L1059.6 103.486L1082.88 90.0461ZM1076.91 73.2425L1090.49 65.4025L1113.92 105.974L1117.02 104.182L1117.6 105.18L1101.14 114.684L1100.56 113.686L1103.61 111.926L1080.76 72.3522L1077.49 74.2402L1076.91 73.2425ZM1109.38 69.6478C1107.42 70.7784 1105.73 71.0903 1104.3 70.5833C1102.92 70.055 1101.79 69.0518 1100.94 67.5738C1100.09 66.0957 1099.83 64.6204 1100.16 63.1477C1100.53 61.6536 1101.64 60.3733 1103.48 59.3066C1105.33 58.2399 1106.99 57.8727 1108.46 58.2048C1109.92 58.5 1111.11 59.4605 1112.05 61.0863C1112.97 62.6752 1113.24 64.2167 1112.87 65.7107C1112.5 67.2048 1111.34 68.5171 1109.38 69.6478ZM1103.22 78.3041L1116.8 70.4641L1131.46 95.8491L1134.56 94.0571L1135.13 95.0547L1118.67 104.559L1118.1 103.561L1121.15 101.801L1107.07 77.4138L1103.8 79.3018L1103.22 78.3041ZM1154.39 83.9385L1153.81 82.9408L1156.36 81.4688L1142.68 72.2261L1141.78 73.1112L1149.05 85.6928L1151.6 84.2208L1152.17 85.2185L1136.26 94.4025L1135.69 93.4048L1138.74 91.6448L1115.89 52.0709L1112.62 53.9589L1112.04 52.9613L1125.62 45.1213L1141.14 72.0027L1141.84 71.1581L1148.32 53.5936L1143.11 56.6016L1142.54 55.6039L1153.46 49.2999L1154.03 50.2976L1150.15 52.5376L1146.79 61.9435L1167.23 75.1968L1169.22 74.0448L1169.8 75.0425L1154.39 83.9385Z" fill="white" fill-opacity="0.2"/>
<path d="M703.336 204.502L692.378 194.866L681.404 201.202L684.048 215.638L688.205 213.238L688.813 214.291L680.333 219.187L679.725 218.134L682.33 216.63L674.479 170.392L679.024 167.768L714.975 197.782L717.525 196.31L718.133 197.363L700.009 207.827L699.401 206.774L703.336 204.502ZM678.024 182.165L681.198 199.694L691.23 193.902L678.024 182.165Z" fill="white" fill-opacity="0.3"/>
<path d="M191.144 40.9198L207.717 31.3518C212.853 28.3865 217.101 26.8698 220.461 26.802C223.837 26.6758 226.474 28.257 228.373 31.5456C231.296 36.6078 229.996 41.3977 224.476 45.9154L224.54 46.0262C232.463 42.6833 238.014 43.7647 241.193 49.2703C243.518 53.2979 243.635 56.9993 241.544 60.3744C239.431 63.7126 235.53 67.0244 229.839 70.3097L213.544 79.7177L212.936 78.6646L216.539 76.5846L195.355 39.8929L191.752 41.9729L191.144 40.9198ZM216.627 51.7771L227.347 70.3446L229.952 68.8406C231.984 67.6673 233.002 66.1439 233.004 64.2705C233.006 62.397 232.218 60.0931 230.639 57.3588L228.943 54.4212C227.535 51.9825 225.98 50.4415 224.279 49.7981C222.577 49.1547 220.451 49.5691 217.902 51.0411L216.627 51.7771ZM206.163 33.6529L216.019 50.724L217.46 49.892C219.381 48.7826 220.381 47.4419 220.459 45.8698C220.552 44.2394 219.905 42.2233 218.519 39.8215L217.015 37.2165C215.436 34.4822 214.005 32.7712 212.721 32.0836C211.416 31.3591 209.821 31.5409 207.937 32.6289L206.163 33.6529Z" fill="white" fill-opacity="0.3"/>
<path d="M37.8891 194.732C39.9498 194.18 41.614 193.138 42.882 191.605C44.1911 190.062 44.5475 188.177 43.9512 185.952C43.3438 183.685 42.0146 182.186 39.9634 181.455C37.9534 180.712 35.2458 180.334 31.8405 180.318C28.4654 180.251 25.9682 180.081 24.3491 179.808C22.7712 179.524 21.1999 179.017 19.6351 178.288C16.5057 176.83 14.3392 173.855 13.1355 169.362C12.1527 165.694 12.6061 162.194 14.4957 158.86C16.4266 155.516 19.6588 153.237 24.1922 152.022C26.3764 151.437 28.7315 151.159 31.2573 151.189C33.8133 151.167 35.3798 151.078 35.9568 150.924C36.5337 150.769 36.9385 150.219 37.171 149.273L37.851 149.091L41.6297 161.462L40.6406 161.727C37.7017 158.672 34.8529 156.365 32.0944 154.807C29.3661 153.197 26.7243 152.735 24.1691 153.419C21.6551 154.093 19.8576 155.215 18.7766 156.786C17.6846 158.315 17.4036 160.069 17.9337 162.047C18.4527 163.984 19.68 165.268 21.6157 165.897C23.5815 166.475 25.8685 166.768 28.4767 166.776C31.085 166.783 32.7931 166.812 33.6012 166.86C34.4505 166.898 35.4923 166.994 36.7265 167.149C37.9909 167.252 39.0397 167.457 39.8728 167.764C40.7361 168.018 41.6587 168.412 42.6405 168.944C43.6525 169.423 44.5011 170.035 45.1863 170.779C46.8291 172.459 48.0149 174.659 48.7438 177.379C49.9364 181.83 49.4959 185.791 47.4223 189.262C45.3788 192.681 42.0904 194.998 37.557 196.213C35.2078 196.842 32.4256 197.256 29.2102 197.455C26.036 197.643 24.284 197.781 23.9543 197.87C23.3774 198.024 22.9866 198.791 22.7822 200.171L21.9167 200.403L17.3562 185.856L18.4071 185.574C21.1812 188.674 24.3284 191.188 27.8486 193.116C31.4101 195.033 34.7569 195.571 37.8891 194.732ZM72.3701 173.169L70.9621 167.914C69.8909 163.917 68.8858 161.072 67.9465 159.38C67.0375 157.636 65.7999 156.974 64.2338 157.393C63.3271 157.636 62.6571 158.103 62.2236 158.793C61.8204 159.431 61.6552 160.381 61.7282 161.643C61.8542 163.597 62.4252 166.469 63.4412 170.261L64.7332 175.083C65.9369 179.575 66.7838 182.241 67.274 183.082C67.8055 183.911 68.2927 184.576 68.7358 185.075C69.4542 185.943 70.4728 186.2 71.7916 185.847C73.3989 185.416 74.2014 184.207 74.199 182.22C74.2165 180.802 73.6069 177.785 72.3701 173.169ZM71.9661 186.993C66.8145 188.373 62.5665 188.098 59.2222 186.167C55.8778 184.236 53.5486 180.818 52.2344 175.914C50.9093 170.969 51.2946 166.801 53.3903 163.413C55.5162 159.972 59.1343 157.567 64.2447 156.198C69.3551 154.828 73.4986 155.043 76.6752 156.842C79.8407 158.6 82.0971 161.993 83.4443 167.021C86.2602 177.531 82.4342 184.188 71.9661 186.993ZM58.6597 153.653L59.3905 140.802L62.1303 139.405C63.3306 138.774 64.3433 138.679 65.1684 139.121C66.0236 139.51 66.5892 140.22 66.8653 141.25C67.1303 142.239 66.8088 143.43 65.9008 144.822L59.4556 153.903L58.6597 153.653ZM109.489 144.737L109.787 145.85L102.425 176.976L103.228 176.761C106.69 175.833 109.167 174.198 110.659 171.854C112.152 169.511 112.908 166.15 112.927 161.772L113.793 161.54L116.199 174.478L90.2352 181.435L89.9867 180.508L97.5471 149.13L96.8671 149.312C92.7046 150.427 89.9813 151.886 88.6972 153.687C87.4543 155.478 86.7904 158.77 86.7055 163.563L85.9018 163.779L83.5251 151.694L109.489 144.737ZM108.074 126.962L123.22 122.903L135.345 168.155L138.807 167.227L139.105 168.34L120.745 173.26L120.447 172.147L123.847 171.236L112.02 127.097L108.372 128.074L108.074 126.962ZM156.729 164.28C151.413 165.705 147.051 165.416 143.643 163.414C140.265 161.359 137.925 157.901 136.622 153.037C135.308 148.133 135.787 143.985 138.058 140.594C140.371 137.191 143.835 134.871 148.451 133.635C157.807 131.128 163.558 134.623 165.705 144.118L148.272 148.79L148.918 151.201C150 155.239 151.332 158.151 152.915 159.936C154.497 161.72 156.566 162.27 159.121 161.586C163.902 160.305 166.349 156.91 166.464 151.402L167.626 151.289C167.638 154.467 166.835 157.156 165.216 159.356C163.638 161.546 160.809 163.187 156.729 164.28ZM148.002 147.537L154.369 145.831L153.558 142.801C152.663 139.463 151.85 137.252 151.117 136.167C150.415 135.03 149.467 134.622 148.271 134.942C147.117 135.251 146.429 136.142 146.205 137.616C146.012 139.037 146.34 141.334 147.19 144.508L148.002 147.537ZM185.407 126.25C183.882 126.659 182.808 128.007 182.184 130.294C181.56 132.582 181.613 135.085 182.341 137.805L186.781 154.373L191.17 153.197L191.468 154.31L172.18 159.478L171.882 158.365L175.282 157.454L167.994 130.253L164.594 131.164L164.296 130.052L179.194 126.06L180.784 131.994C180.757 129.749 181.357 127.866 182.583 126.344C183.799 124.782 185.375 123.741 187.312 123.222C189.249 122.703 190.965 122.84 192.458 123.632C193.981 124.372 195.014 125.752 195.555 127.772C196.085 129.75 196.04 131.396 195.421 132.711C194.801 134.025 193.543 134.936 191.647 135.444C189.793 135.941 188.247 135.693 187.009 134.7C185.812 133.695 185.251 132.012 185.325 129.651L187.55 129.055C188.017 126.677 187.303 125.742 185.407 126.25Z" fill="white" fill-opacity="0.2"/>
<path d="M262.6 209.765C255.987 209.765 252.68 216.144 252.68 228.901V233.957C252.68 240.016 253.555 244.773 255.304 248.229C257.053 251.642 259.635 253.349 263.048 253.349C267.741 253.349 272.051 248.784 275.976 239.653H277.128L276.68 253.925H275.976C275.72 253.456 275.485 253.136 275.272 252.965C275.059 252.752 274.739 252.645 274.312 252.645C273.928 252.645 272.392 252.986 269.704 253.669C267.016 254.309 264.285 254.629 261.512 254.629C254.557 254.629 249.16 252.752 245.32 248.997C241.523 245.242 239.624 239.61 239.624 232.101C239.624 224.549 241.608 218.725 245.576 214.629C249.587 210.533 254.963 208.485 261.704 208.485C264.307 208.485 266.845 208.826 269.32 209.509C271.837 210.149 273.309 210.469 273.736 210.469C274.163 210.469 274.483 210.384 274.696 210.213C274.909 210 275.144 209.658 275.4 209.189H276.104L276.616 223.077H275.464C273.544 218.768 271.56 215.482 269.512 213.221C267.507 210.917 265.203 209.765 262.6 209.765Z" fill="white" fill-opacity="0.3"/>
<path d="M1073.77 254.067L1074.04 239.683L1068.89 231.572L1066.24 232.28L1066.01 231.4L1080.38 227.548L1080.62 228.429L1077.88 229.162L1090.67 249.242L1090.35 225.82L1085.67 227.075L1085.44 226.194L1094.71 223.71L1094.94 224.59L1091.88 225.41L1091.94 259.734L1087.81 260.84L1075.33 241.722L1074.92 264.293L1070.89 265.374L1050.62 236.467L1048.44 237.051L1048.2 236.17L1063.27 232.133L1063.51 233.013L1060.26 233.883L1073.77 254.067Z" fill="white" fill-opacity="0.3"/>
</svg>
