<svg width="1112" height="595" viewBox="0 0 1112 595" fill="none" xmlns="http://www.w3.org/2000/svg">
<path d="M1006.8 415.4L977.6 329H898.4L867.6 415.4H897.6V423H836.4V415.4H855.2L957.2 140.6H990L1090.8 415.4H1109.2V423H978.4V415.4H1006.8ZM939.6 215.4L902 320.2H974.4L939.6 215.4Z" fill="#0039A4" fill-opacity="0.3"/>
<path d="M444.336 564.513L433.378 554.877L422.404 561.213L425.048 575.649L429.205 573.249L429.813 574.302L421.333 579.198L420.725 578.145L423.33 576.641L415.479 530.403L420.024 527.779L455.975 557.793L458.525 556.321L459.133 557.374L441.009 567.838L440.401 566.785L444.336 564.513ZM419.024 542.176L422.198 559.705L432.23 553.913L419.024 542.176Z" fill="#0059FB" fill-opacity="0.3"/>
<path d="M12.7639 169.92L29.3362 160.352C34.4723 157.386 38.7205 155.87 42.0807 155.802C45.4566 155.676 48.0939 157.257 49.9925 160.546C52.9152 165.608 51.6161 170.398 46.0953 174.915L46.1593 175.026C54.0827 171.683 59.6338 172.765 62.8124 178.27C65.1378 182.298 65.2548 185.999 63.1635 189.374C61.0509 192.713 57.1494 196.024 51.4591 199.31L35.1639 208.718L34.5559 207.665L38.1586 205.585L16.9746 168.893L13.3719 170.973L12.7639 169.92ZM38.2466 180.777L48.9666 199.345L51.5716 197.841C53.6039 196.667 54.6211 195.144 54.6234 193.27C54.6256 191.397 53.8374 189.093 52.2587 186.359L50.5627 183.421C49.1547 180.983 47.5999 179.441 45.8982 178.798C44.1966 178.155 42.071 178.569 39.5214 180.041L38.2466 180.777ZM27.7826 162.653L37.6386 179.724L39.0797 178.892C41.0011 177.783 42.0006 176.442 42.0783 174.87C42.1716 173.239 41.5249 171.223 40.1382 168.821L38.6342 166.216C37.0556 163.482 35.6244 161.771 34.3406 161.084C33.0355 160.359 31.4407 160.541 29.5562 161.629L27.7826 162.653Z" fill="#0059FB" fill-opacity="0.3"/>
<path d="M84.2196 338.765C77.6063 338.765 74.2996 345.144 74.2996 357.901V362.957C74.2996 369.016 75.1743 373.773 76.9236 377.229C78.673 380.642 81.2543 382.349 84.6676 382.349C89.361 382.349 93.6703 377.784 97.5956 368.653H98.7476L98.2996 382.925H97.5956C97.3396 382.456 97.105 382.136 96.8916 381.965C96.6783 381.752 96.3583 381.645 95.9316 381.645C95.5476 381.645 94.0116 381.986 91.3236 382.669C88.6356 383.309 85.905 383.629 83.1316 383.629C76.177 383.629 70.7796 381.752 66.9396 377.997C63.1423 374.242 61.2436 368.61 61.2436 361.101C61.2436 353.549 63.2276 347.725 67.1956 343.629C71.2063 339.533 76.5823 337.485 83.3236 337.485C85.9263 337.485 88.465 337.826 90.9396 338.509C93.457 339.149 94.929 339.469 95.3556 339.469C95.7823 339.469 96.1023 339.384 96.3156 339.213C96.529 339 96.7636 338.658 97.0196 338.189H97.7236L98.2356 352.077H97.0836C95.1636 347.768 93.1796 344.482 91.1316 342.221C89.1263 339.917 86.8223 338.765 84.2196 338.765Z" fill="#0059FB" fill-opacity="0.3"/>
<path d="M890.6 63.776C883.987 63.776 880.68 70.1547 880.68 82.912V87.968C880.68 94.0267 881.555 98.784 883.304 102.24C885.053 105.653 887.635 107.36 891.048 107.36C895.741 107.36 900.051 102.795 903.976 93.664H905.128L904.68 107.936H903.976C903.72 107.467 903.485 107.147 903.272 106.976C903.059 106.763 902.739 106.656 902.312 106.656C901.928 106.656 900.392 106.997 897.704 107.68C895.016 108.32 892.285 108.64 889.512 108.64C882.557 108.64 877.16 106.763 873.32 103.008C869.523 99.2533 867.624 93.6213 867.624 86.112C867.624 78.56 869.608 72.736 873.576 68.64C877.587 64.544 882.963 62.496 889.704 62.496C892.307 62.496 894.845 62.8373 897.32 63.52C899.837 64.16 901.309 64.48 901.736 64.48C902.163 64.48 902.483 64.3947 902.696 64.224C902.909 64.0107 903.144 63.6693 903.4 63.2H904.104L904.616 77.088H903.464C901.544 72.7787 899.56 69.4933 897.512 67.232C895.507 64.928 893.203 63.776 890.6 63.776Z" fill="#0059FB" fill-opacity="0.3"/>
<path d="M895.392 383.067L895.662 368.683L890.507 360.572L887.864 361.28L887.628 360.4L902.001 356.548L902.237 357.429L899.502 358.162L912.286 378.241L911.974 354.82L907.291 356.075L907.055 355.194L916.328 352.709L916.564 353.59L913.504 354.41L913.557 388.734L909.431 389.84L896.954 370.722L896.542 393.293L892.508 394.374L872.24 365.467L870.06 366.051L869.824 365.17L884.893 361.132L885.129 362.013L881.883 362.883L895.392 383.067Z" fill="#0059FB" fill-opacity="0.3"/>
</svg>
