<svg width="1440" height="164" viewBox="0 0 1440 164" fill="none" xmlns="http://www.w3.org/2000/svg">
<path d="M288 24.4976C282 22.4976 247 0.497467 208.5 0.997467C188.901 1.252 141 17.4975 89 29.4975C42.8519 37.777 0 34.9975 0 34.9975V163.497H1440V35.9976L1367 31.9976L1293 26.4975C1293 26.4975 1241 22.4976 1226.5 23.4976C1212 24.4975 1189 27.4975 1181.5 28.4976C1174 29.4976 1098.5 43.9976 1098.5 43.9976C1098.5 43.9976 1078.5 48.9975 1065 51.9975C1047.5 55.8864 1049.5 54.4975 1024.5 57.9975C999.5 61.4975 954.5 61.9976 941.5 61.9976C928.5 61.9976 910 58.9975 878.5 49.4976C847 39.9977 771.5 26.4976 723 26.4976C674.5 26.4976 626 24.4975 580 26.4976C534 28.4976 434.5 33.9975 411.5 34.4976C388.5 34.9977 378.5 33.4975 349 32.9975C319.5 32.4975 294 26.4975 288 24.4976Z" fill="#3361B6"/>
</svg>
