<svg width="1440" height="163" viewBox="0 0 1440 163" fill="none" xmlns="http://www.w3.org/2000/svg">
<path d="M288 23.5085C282 21.5086 247 -0.491607 208.5 0.00839251C188.901 0.262927 141 16.5084 89 28.5084C42.8519 36.788 0 34.0084 0 34.0084V162.508H1440V35.0085L1367 31.0085L1293 25.5084C1293 25.5084 1241 21.5086 1226.5 22.5085C1212 23.5084 1189 26.5084 1181.5 27.5085C1174 28.5086 1098.5 43.0085 1098.5 43.0085C1098.5 43.0085 1078.5 48.0084 1065 51.0084C1047.5 54.8973 1049.5 53.5084 1024.5 57.0084C999.5 60.5084 954.5 61.0085 941.5 61.0085C928.5 61.0085 910 58.0084 878.5 48.5085C847 39.0086 771.5 25.5085 723 25.5085C674.5 25.5085 626 23.5084 580 25.5085C534 27.5086 434.5 33.0084 411.5 33.5085C388.5 34.0086 378.5 32.5084 349 32.0084C319.5 31.5084 294 25.5084 288 23.5085Z" fill="#00A0E3"/>
</svg>
