<svg width="18" height="18" viewBox="0 0 18 18" fill="none" xmlns="http://www.w3.org/2000/svg">
<path d="M4.14163 14C4.31379 13.512 4.63308 13.0895 5.05546 12.7906C5.47784 12.4918 5.98253 12.3313 6.49996 12.3313C7.01739 12.3313 7.52208 12.4918 7.94446 12.7906C8.36684 13.0895 8.68612 13.512 8.85829 14H17.3333V15.6667H8.85829C8.68612 16.1546 8.36684 16.5771 7.94446 16.876C7.52208 17.1749 7.01739 17.3354 6.49996 17.3354C5.98253 17.3354 5.47784 17.1749 5.05546 16.876C4.63308 16.5771 4.31379 16.1546 4.14163 15.6667H0.666626V14H4.14163ZM9.14163 8.16665C9.31379 7.67871 9.63307 7.25618 10.0555 6.95731C10.4778 6.65844 10.9825 6.49794 11.5 6.49794C12.0174 6.49794 12.5221 6.65844 12.9445 6.95731C13.3668 7.25618 13.6861 7.67871 13.8583 8.16665H17.3333V9.83332H13.8583C13.6861 10.3213 13.3668 10.7438 12.9445 11.0427C12.5221 11.3415 12.0174 11.502 11.5 11.502C10.9825 11.502 10.4778 11.3415 10.0555 11.0427C9.63307 10.7438 9.31379 10.3213 9.14163 9.83332H0.666626V8.16665H9.14163ZM4.14163 2.33332C4.31379 1.84538 4.63308 1.42285 5.05546 1.12398C5.47784 0.825108 5.98253 0.664612 6.49996 0.664612C7.01739 0.664612 7.52208 0.825108 7.94446 1.12398C8.36684 1.42285 8.68612 1.84538 8.85829 2.33332H17.3333V3.99999H8.85829C8.68612 4.48793 8.36684 4.91046 7.94446 5.20933C7.52208 5.5082 7.01739 5.6687 6.49996 5.6687C5.98253 5.6687 5.47784 5.5082 5.05546 5.20933C4.63308 4.91046 4.31379 4.48793 4.14163 3.99999H0.666626V2.33332H4.14163ZM6.49996 3.99999C6.72097 3.99999 6.93293 3.91219 7.08921 3.75591C7.24549 3.59963 7.33329 3.38767 7.33329 3.16665C7.33329 2.94564 7.24549 2.73368 7.08921 2.5774C6.93293 2.42112 6.72097 2.33332 6.49996 2.33332C6.27895 2.33332 6.06698 2.42112 5.9107 2.5774C5.75442 2.73368 5.66663 2.94564 5.66663 3.16665C5.66663 3.38767 5.75442 3.59963 5.9107 3.75591C6.06698 3.91219 6.27895 3.99999 6.49996 3.99999ZM11.5 9.83332C11.721 9.83332 11.9329 9.74552 12.0892 9.58924C12.2455 9.43296 12.3333 9.221 12.3333 8.99999C12.3333 8.77897 12.2455 8.56701 12.0892 8.41073C11.9329 8.25445 11.721 8.16665 11.5 8.16665C11.2789 8.16665 11.067 8.25445 10.9107 8.41073C10.7544 8.56701 10.6666 8.77897 10.6666 8.99999C10.6666 9.221 10.7544 9.43296 10.9107 9.58924C11.067 9.74552 11.2789 9.83332 11.5 9.83332ZM6.49996 15.6667C6.72097 15.6667 6.93293 15.5789 7.08921 15.4226C7.24549 15.2663 7.33329 15.0543 7.33329 14.8333C7.33329 14.6123 7.24549 14.4003 7.08921 14.2441C6.93293 14.0878 6.72097 14 6.49996 14C6.27895 14 6.06698 14.0878 5.9107 14.2441C5.75442 14.4003 5.66663 14.6123 5.66663 14.8333C5.66663 15.0543 5.75442 15.2663 5.9107 15.4226C6.06698 15.5789 6.27895 15.6667 6.49996 15.6667Z" fill="#ECECEC"/>
</svg>
