<svg width="22" height="20" viewBox="0 0 22 20" fill="none" xmlns="http://www.w3.org/2000/svg">
<path fill-rule="evenodd" clip-rule="evenodd" d="M3.95301 0.250001C3.96862 0.250002 3.98429 0.250003 4.00001 0.250003L18.047 0.250001C18.7139 0.24997 19.2841 0.249943 19.7398 0.307424C20.2231 0.368386 20.6902 0.505295 21.0738 0.865244C21.4643 1.23154 21.6194 1.68856 21.6875 2.16405C21.7501 2.60084 21.7501 3.14397 21.75 3.76358L21.75 4.54012C21.75 5.02863 21.75 5.45095 21.7136 5.80311C21.6743 6.18206 21.5885 6.5376 21.3825 6.87893C21.1781 7.2177 20.9028 7.4636 20.5854 7.68404C20.2865 7.8917 19.9045 8.10669 19.4553 8.35955L16.5129 10.0159C15.8431 10.393 15.6099 10.5288 15.4542 10.6639C15.0966 10.9744 14.8918 11.3188 14.7956 11.7504C14.7545 11.9349 14.75 12.1672 14.75 12.8729L14.75 15.605C14.7501 16.5062 14.7501 17.2714 14.6574 17.8596C14.5587 18.4851 14.3298 19.0849 13.7298 19.4602C13.1434 19.827 12.4975 19.7933 11.8698 19.6442C11.2653 19.5007 10.5203 19.2094 9.62636 18.8599L9.53948 18.826C9.12076 18.6623 8.75411 18.519 8.46385 18.3691C8.1519 18.208 7.8622 18.0076 7.64055 17.6957C7.41641 17.3803 7.32655 17.042 7.28648 16.6963C7.24994 16.381 7.24997 16.0026 7.25 15.5806L7.25 12.8729C7.25 12.1672 7.24555 11.9349 7.20442 11.7504C7.1082 11.3188 6.90342 10.9744 6.54584 10.6639C6.39014 10.5288 6.15692 10.393 5.48714 10.0159L2.54471 8.35956C2.09549 8.1067 1.71353 7.8917 1.41458 7.68404C1.09724 7.4636 0.821909 7.2177 0.617472 6.87893C0.411485 6.5376 0.325706 6.18206 0.286448 5.80311C0.249964 5.45094 0.249983 5.02863 0.250004 4.54012L0.250005 3.81466C0.250005 3.79757 0.250004 3.78054 0.250003 3.76357C0.249956 3.14396 0.249915 2.60084 0.312507 2.16405C0.380644 1.68856 0.535759 1.23154 0.926179 0.865244C1.30983 0.505295 1.77695 0.368386 2.26024 0.307424C2.71592 0.249943 3.28607 0.24997 3.95301 0.250001ZM2.44796 1.79563C2.1143 1.83772 2.0082 1.90691 1.95251 1.95916C1.90359 2.00505 1.83904 2.08585 1.79734 2.37683C1.75181 2.69454 1.75001 3.12868 1.75001 3.81466V4.50448C1.75001 5.03869 1.75093 5.38278 1.77846 5.64854C1.8041 5.89605 1.84813 6.01507 1.90174 6.10391C1.9569 6.19532 2.0485 6.298 2.27034 6.45209C2.50406 6.61444 2.82336 6.79508 3.30993 7.06899L6.22296 8.70883C6.25024 8.72418 6.2771 8.73929 6.30357 8.75418C6.86227 9.06851 7.24278 9.28258 7.5292 9.53123C8.12056 10.0446 8.49997 10.6682 8.66847 11.424C8.75036 11.7913 8.75022 12.2031 8.75002 12.7845C8.75002 12.8135 8.75 12.843 8.75 12.8729V15.5424C8.75 16.0146 8.75117 16.305 8.77651 16.5236C8.79942 16.7213 8.83552 16.7878 8.8633 16.8269C8.89359 16.8695 8.95357 16.9338 9.15203 17.0363C9.36445 17.146 9.65708 17.2614 10.1192 17.442C11.0802 17.8177 11.7266 18.0685 12.2164 18.1848C12.695 18.2985 12.8527 18.2396 12.9343 18.1885C13.0023 18.146 13.1073 18.0597 13.1757 17.626C13.2478 17.1686 13.25 16.5234 13.25 15.5424V12.8729C13.25 12.843 13.25 12.8135 13.25 12.7845C13.2498 12.2031 13.2496 11.7913 13.3315 11.424C13.5 10.6682 13.8794 10.0446 14.4708 9.53123C14.7572 9.28258 15.1377 9.06852 15.6964 8.7542C15.7229 8.73931 15.7498 8.72418 15.7771 8.70882L18.6901 7.06899C19.1767 6.79508 19.496 6.61444 19.7297 6.45209C19.9515 6.298 20.0431 6.19532 20.0983 6.10391C20.1519 6.01507 20.1959 5.89605 20.2215 5.64854C20.2491 5.38278 20.25 5.03869 20.25 4.50448V3.81466C20.25 3.12868 20.2482 2.69454 20.2027 2.37683C20.161 2.08585 20.0964 2.00505 20.0475 1.95916C19.9918 1.90691 19.8857 1.83772 19.5521 1.79563C19.2015 1.75141 18.727 1.75 18 1.75H4.00001C3.27297 1.75 2.79854 1.75141 2.44796 1.79563Z" fill="#1C274C"/>
</svg>
