<svg width="19" height="18" viewBox="0 0 19 18" fill="none" xmlns="http://www.w3.org/2000/svg">
<path d="M14 13.9025V12.3333L18.1666 14.8333L14 17.3333V15.5917C12.7262 15.4092 11.5207 14.9022 10.4996 14.1192C9.47839 13.3362 8.67585 12.3036 8.16913 11.1208L8.16663 11.1167L8.16413 11.1217C7.58586 12.4706 6.62452 13.6203 5.3992 14.4281C4.17389 15.236 2.73847 15.6667 1.27079 15.6667H0.666626V14H1.27079C2.41244 14 3.52899 13.6649 4.48206 13.0364C5.43512 12.4079 6.18281 11.5135 6.63246 10.4642L7.25996 8.99999L6.63246 7.53582C6.18281 6.48645 5.43512 5.59209 4.48206 4.96357C3.52899 4.33506 2.41244 4.00002 1.27079 3.99999H0.666626V2.33332H1.27079C2.73856 2.33339 4.17405 2.76414 5.39937 3.57218C6.6247 4.38022 7.58599 5.53004 8.16413 6.87916L8.16663 6.88332L8.16913 6.87832C8.67597 5.69566 9.47855 4.66327 10.4997 3.88044C11.5209 3.09761 12.7262 2.59065 14 2.40832V0.666656L18.1666 3.16666L14 5.66666V4.09749C13.0557 4.27244 12.1692 4.67781 11.4193 5.27762C10.6693 5.87742 10.079 6.65311 9.70079 7.53582L9.07329 8.99999L9.70079 10.4642C10.079 11.3469 10.6693 12.1226 11.4193 12.7224C12.1692 13.3222 13.0557 13.7275 14 13.9025Z" fill="#ECECEC"/>
</svg>
